<?xml version="1.0" encoding="UTF-8" standalone="no"?>
<!-- Created with Inkscape (http://www.inkscape.org/) -->

<svg
   width="107.40965mm"
   height="106.0176mm"
   viewBox="0 0 107.40965 106.0176"
   version="1.1"
   id="svg1"
   xmlns="http://www.w3.org/2000/svg"
   xmlns:svg="http://www.w3.org/2000/svg">
  <defs
     id="defs1" />
  <g
     id="layer1"
     transform="translate(-50.8,-112.44792)">
    <path
       style="fill:none;fill-opacity:0.237575;stroke:#000000;stroke-width:4.13553;stroke-linejoin:round;stroke-dasharray:none;stroke-dashoffset:0;stroke-opacity:1;paint-order:fill markers stroke"
       d="m 52.977804,122.831 c -0.3799,4.24434 0.34217,80.54338 0.38808,85.1272 0.046,4.58383 1.897589,5.28901 7.829689,5.20157 5.9321,-0.0874 76.622637,1.61617 82.212127,1.06309 5.5895,-0.55308 10.71799,-1.17011 12.4027,-7.44162 1.68471,-6.27152 -3.58477,-76.50773 -3.89801,-81.50341 -0.31324,-4.99567 -1.00566,-7.34195 -6.73287,-7.44162 -5.72721,-0.0997 -79.332767,0.85165 -82.920857,1.06309 -3.58809,0.21143 -3.67912,3.63505 -4.25235,7.44161 -0.57324,3.80656 0.0837,75.70682 0,79.37725 -0.0837,3.67042 0.88427,11.42656 6.02416,10.63087 5.13989,-0.79569 79.270017,0.45281 81.503407,-1.06308 2.23339,-1.51589 5.26008,-4.72744 6.02417,-8.15035 0.76409,-3.4229 0.39797,-77.9808 0.35436,-82.5665 -0.0437,-4.5857 -1.70629,-8.26216 -5.31544,-8.90877 -3.60915,-0.64662 -76.953907,-1.4623 -83.098067,-1.01338 -6.14415,0.44891 -10.141199,3.93971 -10.521099,8.18405 z"
       id="path20" />
    <path
       id="path33"
       style="fill:none;stroke:#000000;stroke-width:4.1;stroke-dasharray:none;stroke-opacity:1"
       d="m 131.26154,124.33309 c -3.47124,1.61267 -6.74968,3.90618 -10.04722,5.88469 -5.30193,3.3411 -10.64158,6.65091 -15.65983,10.40987 -2.21405,1.91447 -4.12593,4.1397 -6.091776,6.29919 8.812856,2.26224 17.644946,4.44828 26.490226,6.58008 0.0621,-1.04001 0.024,-2.08201 0.0371,-3.12305 -1.7096,-1.80197 -3.77847,-3.37652 -4.92115,-5.62842 -0.64166,-1.7318 1.42922,-3.72232 3.11256,-2.82861 1.85467,0.8017 3.33459,2.18007 5.01563,3.23047 2.05207,-1.63141 3.96859,-3.42325 5.86718,-5.22851 -0.4505,-1.9488 -1.4962,-3.91437 -1.03427,-5.95461 0.62098,-1.80837 3.51823,-2.00874 4.34735,-0.26313 1.18412,1.48308 2.07047,3.18771 3.35294,4.59469 2.48678,0.73721 5.0084,1.53198 7.60547,1.83984 0.50623,-0.10972 1.1475,-0.17502 1.5,-0.54297 0.45731,-1.44087 0.41911,-2.96687 0.57617,-4.45507 -6.00794,-4.43406 -12.74799,-7.73514 -19.45899,-10.94727 -0.24541,-0.17512 -0.45603,0.0668 -0.6914,0.13281 z m -35.835936,32.33203 c 5.793896,1.79523 11.407016,4.12407 16.871896,6.74737 5.5113,2.58814 11.04809,5.13107 16.73638,7.30979 6.25273,2.44435 12.50885,4.81208 18.91409,6.81509 1.26726,0.31079 2.69934,0.60932 3.9288,0.60041 -0.4785,-0.8493 -0.64817,-1.85766 -1.20703,-2.63086 -1.54963,-1.29964 -3.49562,-1.97868 -5.24371,-2.95958 -5.76805,-2.90806 -11.5801,-5.76067 -17.86231,-7.33957 -10.82358,-3.00697 -21.63241,-6.03509 -32.523236,-8.76466 -0.64412,-0.16144 -1.28853,-0.32183 -1.93324,-0.48111 z m -18.34375,3.51172 c -4.50794,-0.006 -8.962376,0.93185 -13.416018,1.80274 1.560265,0.10468 3.105356,-0.30304 4.667061,-0.33757 4.454337,-0.35821 8.917477,-0.2959 13.340047,-0.98982 0.75289,-0.12876 0.86882,-0.26221 0.029,-0.2885 -1.54843,-0.17784 -3.04959,-0.20941 -4.62008,-0.18685 z m 15.89258,3.09375 c -4.01557,1.70112 -7.76854,4.39568 -12.24409,4.71056 -5.9548,0.66796 -12.002983,0.28923 -17.877811,1.61693 -1.839956,0.43638 -3.702269,0.95868 -5.436697,1.66665 -0.230804,1.71568 -0.09864,3.48337 -0.234375,5.2168 6.780762,1.55117 13.811808,2.45155 20.371093,4.95117 2.83649,1.22659 5.25768,3.44407 6.54046,6.27581 3.50655,6.5485 4.54801,14.10591 4.55565,21.44731 -0.0661,1.86202 -0.57612,3.66534 -0.99259,5.47024 12.996816,0.0884 25.994646,-0.0438 38.989456,-0.26706 6.92496,-0.19003 13.83056,-0.43518 20.70887,-1.32175 0.66453,-0.0191 -0.11223,-0.87248 -0.12095,-1.28017 -2.14763,-5.97785 -4.27484,-11.94118 -6.9452,-17.71938 -2.12994,-4.69319 -4.38721,-9.36758 -7.29988,-13.6309 -0.65628,-0.9625 -1.75386,-1.38195 -2.80571,-1.74347 -6.67284,-2.65378 -13.41869,-5.17344 -19.79611,-8.49979 -5.5812,-2.69483 -11.316346,-5.12504 -17.264996,-6.88073 -0.039,0.0182 -0.10604,-0.0449 -0.14712,-0.0122 z m -0.0898,1.24805 c 2.53672,-0.007 5.01634,2.0586 5.07031,4.66992 0.0897,1.85675 -1.10953,3.48256 -2.58423,4.48512 -2.32639,1.70218 -5.89046,1.89427 -8.07002,-0.15976 -1.71963,-1.53195 -2.06333,-4.38589 -0.58599,-6.20036 1.37278,-1.95689 3.83279,-2.89689 6.16993,-2.79492 z" />
    <path
       style="fill:none;fill-opacity:1;stroke:#000000;stroke-width:4.10001;stroke-linejoin:round;stroke-dasharray:none;stroke-dashoffset:0;stroke-opacity:1;paint-order:fill markers stroke"
       d="m 62.278286,169.67093 -3.8388,8.226 13.709994,-9.8712 -3.290398,9.3228 8.032102,-9.57751 -4.19331,11.22271 10.968,-9.8712 -6.51427,12.15889 7.61107,-6.12649 -2.742,8.77439 24.677986,-15.35519 -21.387586,19.19399 27.968376,-16.45199 -25.774776,20.83919 32.355576,-17.54879 -29.065176,23.03279 34.000776,-17.54879 -34.000776,25.22638 43.323566,-21.93599 -43.323566,25.22639 46.514166,-22.09661 -32.80418,24.83861 32.90398,-20.83919 -20.83919,21.93599 21.93599,-13.70999 -11.51639,13.70999 18.64559,-7.6776 -4.9356,7.6776"
       id="path37" />
    <path
       style="fill:none;fill-opacity:1;stroke:#000000;stroke-width:4.10001;stroke-linejoin:round;stroke-dasharray:none;stroke-dashoffset:0;stroke-opacity:1;paint-order:fill markers stroke"
       d="m 104.50506,143.34775 20.83919,6.03239 -15.9036,-10.41959 10.4196,2.742 -2.742,-6.5808 12.61319,9.3228 -7.12919,-15.90359 10.96799,7.12919 -3.64491,-11.2227 6.93531,7.3839 3.2904,-4.9356 4.3872,10.4196 2.1936,-6.5808 2.74199,7.6776"
       id="path38" />
    <path
       style="fill:none;fill-opacity:1;stroke:#000000;stroke-width:4.10001;stroke-linejoin:round;stroke-dasharray:none;stroke-dashoffset:0;stroke-opacity:1;paint-order:fill markers stroke"
       d="m 58.713687,158.70294 18.160117,-4.24522 m 0,0 2.95327,-0.69038 m 0,0 16.17779,2.4678"
       id="path39" />
    <path
       style="fill:none;fill-opacity:1;stroke:#000000;stroke-width:4.10001;stroke-linejoin:round;stroke-dasharray:none;stroke-dashoffset:0;stroke-opacity:1;paint-order:fill markers stroke"
       d="m 99.569464,146.08975 -7.6776,8.22599"
       id="path40" />
    <path
       style="fill:none;fill-opacity:1;stroke:#000000;stroke-width:4.10001;stroke-linejoin:round;stroke-dasharray:none;stroke-dashoffset:0;stroke-opacity:1;paint-order:fill markers stroke"
       d="m 125.89265,152.67054 0.5484,11.5164"
       id="path41" />
  </g>
</svg>
