<?xml version="1.0" encoding="UTF-8" standalone="no"?>
<!-- Created with Inkscape (http://www.inkscape.org/) -->

<svg
   width="1mm"
   height="1mm"
   viewBox="0 0 1 1"
   version="1.1"
   id="svg1"
   sodipodi:docname="linear_easing_1.svg"
   inkscape:version="1.4.2 (ebf0e940d0, 2025-05-08)"
   xmlns:inkscape="http://www.inkscape.org/namespaces/inkscape"
   xmlns:sodipodi="http://sodipodi.sourceforge.net/DTD/sodipodi-0.dtd"
   xmlns="http://www.w3.org/2000/svg"
   xmlns:svg="http://www.w3.org/2000/svg">
  <sodipodi:namedview
     id="namedview1"
     pagecolor="#ffffff"
     bordercolor="#000000"
     borderopacity="0.25"
     inkscape:showpageshadow="2"
     inkscape:pageopacity="0.0"
     inkscape:pagecheckerboard="0"
     inkscape:deskcolor="#d1d1d1"
     inkscape:document-units="mm"
     inkscape:zoom="128"
     inkscape:cx="1.3398437"
     inkscape:cy="2.3710937"
     inkscape:window-width="1750"
     inkscape:window-height="1058"
     inkscape:window-x="0"
     inkscape:window-y="0"
     inkscape:window-maximized="0"
     inkscape:current-layer="layer1" />
  <defs
     id="defs1" />
  <g
     inkscape:label="Layer 1"
     inkscape:groupmode="layer"
     id="layer1">
    <path
       style="display:inline;opacity:1;fill:none;stroke:#000000;stroke-width:0.0047625;stroke-linejoin:round;stroke-dasharray:none;paint-order:fill markers stroke"
       d="m 0,0 c 0.07814006,0.00165733 0.08661916,0.11042538 0.13657812,0.19259032 0.049959,0.0821649 0.13423882,0.0572829 0.17406707,0.12203727 0.0398282,0.0647544 0.0368483,0.10991432 0.0972784,0.17036602 0.0604301,0.0604517 0.13440738,0.051406 0.19481764,0.10267117 0.0604103,0.0512652 0.0346269,0.0998103 0.10734502,0.1760159 0.0288052,0.0301867 0.11976215,0.0591402 0.16140875,0.093067 C 0.93498433,0.90846828 0.97849806,0.97593868 1,1"
       id="path4"
       sodipodi:nodetypes="czzzzssc"
       inkscape:label="spinner3" />
    <path
       style="display:none;fill:none;stroke:#000000;stroke-width:0.0047625;stroke-linejoin:round;stroke-dasharray:none;paint-order:fill markers stroke"
       d="m 0,0 c 0.1246263,0.00343244 0.11113538,0.15095791 0.18881552,0.2245444 0.0776801,0.0735865 0.16357509,0.0667982 0.27438034,0.17012048 0.11080524,0.10332229 0.086599,0.18927185 0.18975045,0.2650263 C 0.75609774,0.73544563 0.96888818,0.90691398 1,1"
       id="path3"
       sodipodi:nodetypes="czzzc"
       inkscape:label="spinner2b" />
    <path
       style="display:none;opacity:0.04;fill:none;stroke:#000000;stroke-width:0.0047625;stroke-linejoin:round;stroke-dasharray:none;paint-order:fill markers stroke"
       d="M 0,0 C 0.16183333,0.00343244 0.2669563,0.37496316 0.45960002,0.5676759 0.65224375,0.76038865 0.9201599,0.91065653 1,1"
       id="path1"
       sodipodi:nodetypes="czc"
       inkscape:label="spinner1"
       sodipodi:insensitive="true" />
    <path
       style="opacity:0.21;fill:none;stroke:#000000;stroke-width:0.00502708;stroke-linejoin:round;stroke-dasharray:none;paint-order:fill markers stroke"
       d="M 0,0 1,1"
       id="path1-3"
       inkscape:label="base"
       sodipodi:insensitive="true" />
  </g>
</svg>
