<?xml version="1.0" encoding="UTF-8" standalone="no"?>
<!-- Created with Inkscape (http://www.inkscape.org/) -->

<svg
   width="1mm"
   height="0.34999999mm"
   viewBox="0 0 1 0.35"
   version="1.1"
   id="svg1"
   inkscape:version="1.4.2 (ebf0e940d0, 2025-05-08)"
   sodipodi:docname="scribbles.svg"
   xmlns:inkscape="http://www.inkscape.org/namespaces/inkscape"
   xmlns:sodipodi="http://sodipodi.sourceforge.net/DTD/sodipodi-0.dtd"
   xmlns="http://www.w3.org/2000/svg"
   xmlns:svg="http://www.w3.org/2000/svg">
  <sodipodi:namedview
     id="namedview1"
     pagecolor="#ffffff"
     bordercolor="#000000"
     borderopacity="0.25"
     inkscape:showpageshadow="2"
     inkscape:pageopacity="0.0"
     inkscape:pagecheckerboard="0"
     inkscape:deskcolor="#d1d1d1"
     inkscape:document-units="mm"
     inkscape:zoom="122.24552"
     inkscape:cx="1.2597599"
     inkscape:cy="1.0593435"
     inkscape:window-width="1750"
     inkscape:window-height="1058"
     inkscape:window-x="0"
     inkscape:window-y="0"
     inkscape:window-maximized="0"
     inkscape:current-layer="layer1" />
  <defs
     id="defs1" />
  <g
     inkscape:label="Layer 1"
     inkscape:groupmode="layer"
     id="layer1">
    <path
       style="display:inline;fill:none;stroke:#000000;stroke-width:0.0140213;stroke-linejoin:round;stroke-dasharray:none;paint-order:fill markers stroke"
       d="m 0.06717016,0.19875525 c 0.04590072,0.0640954 0.09986502,0.0862412 0.14118426,0.0637398 0.0413194,-0.0225014 0.0786624,-0.0661734 0.0763519,-0.12579028 -0.002313,-0.05961708 -0.0802163,-0.07410729 -0.0724987,0.0114052 0.007718,0.0855125 0.0981388,0.10332275 0.14289414,0.10209764 0.0447553,-0.001225 0.14567377,-0.0514403 0.14452406,-0.11976192 -0.001152,-0.06832152 -0.0713155,-0.06170884 -0.077116,0.006882 -0.0058,0.0685904 0.079857,0.11707331 0.13892941,0.11242721 0.0590725,-0.004646 0.14949369,-0.0504459 0.14921933,-0.11892872 -2.7486e-4,-0.06848265 -0.0729905,-0.07196589 -0.0718564,0.006953 0.001134,0.0789188 0.0699061,0.11761026 0.12504166,0.11801568 0.0551356,4.0553e-4 0.1429375,-0.0578232 0.16859285,-0.10290166"
       id="path2"
       sodipodi:nodetypes="czzzzzzzzzzc"
       inkscape:label="spinner4" />
    <path
       style="display:none;fill:none;stroke:#000000;stroke-width:0.0140213;stroke-linejoin:round;stroke-dasharray:none;paint-order:fill markers stroke"
       d="M 0.05805971,0.13660498 C 0.10797019,0.26193567 0.35525482,0.19161688 0.38586466,0.11202727 0.41647444,0.03243767 0.3367885,0.0220047 0.31256276,0.08803155 0.28833702,0.1540584 0.27688391,0.22803629 0.38859489,0.24382805 0.50030587,0.2596199 0.66125404,0.11789295 0.71967761,0.22511469 0.77810135,0.3323364 0.59090405,0.3361921 0.60743783,0.21194022 0.62397152,0.08768833 0.8381139,0.13047976 0.94682009,0.15652352"
       id="path3"
       sodipodi:nodetypes="czzzzzc"
       inkscape:label="spinner3" />
    <path
       style="display:none;fill:none;stroke:#000000;stroke-width:0.0140213;stroke-linejoin:round;stroke-dasharray:none;paint-order:fill markers stroke"
       d="M 0.14254063,0.2938125 C 0.10301621,0.2571751 0.0885351,0.17576883 0.12872349,0.11336434 c 0.0401883,-0.06240458 0.17293408,-0.08274137 0.25797572,-0.003932 0.0850417,0.0788098 0.0269571,0.13671136 -0.039893,0.13923062 -0.0668499,0.002519 -0.0812133,-0.0627161 -0.0300127,-0.0891682 0.0512009,-0.0264521 0.15399772,0.020863 0.23776893,0.0435695 0.0837712,0.0227066 0.19943644,0.028629 0.27049542,4.1993e-4 0.0710589,-0.0282097 0.0922414,-0.0677874 0.0456478,-0.0856104"
       id="path4"
       sodipodi:nodetypes="czzzzzzc"
       inkscape:label="spinner2" />
    <path
       style="display:none;fill:none;stroke:#000000;stroke-width:0.0140213;stroke-linejoin:round;stroke-dasharray:none;paint-order:fill markers stroke"
       d="m 0.04276819,0.30609795 c 0.02501087,-0.0621192 0.02587843,-0.26140339 0.07010972,-0.25775973 0.0442308,0.0036438 0.0392081,0.24571051 0.0949588,0.24268559 0.0557507,-0.003024 0.044678,-0.19950842 0.10249788,-0.1955405 0.0578198,0.0039683 0.0658219,0.15775144 0.13449927,0.15586294 0.0686774,-0.001889 0.10746733,-0.0981084 0.17282507,-0.095961 0.0653576,0.002148 0.11054793,0.0614271 0.1828686,0.0649971 0.0723208,0.00357 0.0987762,-0.0464728 0.16302072,-0.0447597"
       id="path8"
       sodipodi:nodetypes="czzzzzzc"
       inkscape:label="spinner1" />
  </g>
</svg>
